<svg width="71" height="70" viewBox="0 0 71 70" fill="none" xmlns="http://www.w3.org/2000/svg">
<rect x="0.4552" width="70" height="70" rx="24" fill="#FCDE3F"/>
<path d="M57.2734 22.864V47.1469C57.1723 48.3492 56.7049 49.3276 55.8714 50.0822C55.0643 50.8117 54.0518 51.1969 52.9643 51.1961C41.5546 51.1887 30.0794 51.1904 18.5384 51.2012C17.8754 51.2018 17.3796 51.1697 17.0512 51.1049C15.1387 50.7282 13.7734 49.091 13.637 47.141V22.8461C13.7785 20.9182 15.1208 19.2947 17.0095 18.9035C17.3725 18.8279 17.9095 18.7932 18.6203 18.7995C20.0447 18.812 21.4842 18.8134 22.9387 18.8037C23.6316 18.7986 24.0876 19.4506 23.7475 20.0779C23.566 20.4128 23.2498 20.5151 22.8671 20.5151C21.4916 20.5174 20.1032 20.5131 18.7021 20.5023C17.9367 20.4966 17.4274 20.5344 17.174 20.6157C16.2791 20.9037 15.5955 21.606 15.4004 22.5197C15.3612 22.7026 15.3416 23.0131 15.3416 23.4512C15.341 31.5841 15.3413 39.4679 15.3424 47.1026C15.3424 47.4702 15.4813 47.8756 15.7592 48.3188C16.0779 48.8268 16.5501 49.1827 17.1757 49.3867C17.3984 49.46 17.899 49.4961 18.6774 49.4949C30.0052 49.4841 41.3041 49.4839 52.574 49.4941C53.1211 49.4947 53.5183 49.4543 53.7654 49.3731C54.8137 49.0305 55.5714 48.0631 55.5705 46.9697C55.5654 38.8907 55.5666 30.9827 55.574 23.2458C55.574 22.8685 55.5296 22.5455 55.441 22.2768C55.0771 21.179 54.0901 20.5117 52.9396 20.5117C44.9856 20.5123 37.2964 20.512 29.872 20.5108C28.6933 20.5108 28.6958 18.8089 29.8592 18.808C37.5813 18.8057 45.2876 18.806 52.9779 18.8089C54.0126 18.8089 54.9688 19.1523 55.7632 19.8248C56.666 20.5884 57.1694 21.6015 57.2734 22.864Z" fill="#191919"/>
<path d="M26.4211 20.5083C26.8899 20.5083 27.27 20.1282 27.27 19.6594C27.27 19.1906 26.8899 18.8106 26.4211 18.8106C25.9523 18.8106 25.5723 19.1906 25.5723 19.6594C25.5723 20.1282 25.9523 20.5083 26.4211 20.5083Z" fill="#191919"/>
<path d="M34.6004 31.4199C34.6004 32.4941 34.3888 33.5577 33.9778 34.55C33.5667 35.5424 32.9642 36.444 32.2047 37.2036C31.4452 37.9631 30.5435 38.5655 29.5512 38.9766C28.5588 39.3876 27.4952 39.5992 26.4211 39.5992C24.2518 39.5992 22.1714 38.7375 20.6375 37.2036C19.1036 35.6696 18.2419 33.5892 18.2419 31.4199C18.2419 29.2507 19.1036 27.1702 20.6375 25.6363C22.1714 24.1024 24.2518 23.2407 26.4211 23.2407C27.4952 23.2407 28.5588 23.4522 29.5512 23.8633C30.5435 24.2743 31.4452 24.8768 32.2047 25.6363C32.9642 26.3958 33.5667 27.2975 33.9778 28.2899C34.3888 29.2822 34.6004 30.3458 34.6004 31.4199ZM21.3697 35.4708C21.3754 35.4827 21.3836 35.4918 21.3944 35.4981C21.3979 35.5 21.4017 35.5012 21.4056 35.5017C21.4096 35.5021 21.4136 35.5018 21.4174 35.5007C21.4212 35.4996 21.4247 35.4977 21.4278 35.4952C21.4309 35.4927 21.4334 35.4896 21.4353 35.4861C22.024 34.452 22.8492 33.6722 23.9112 33.1466C23.9164 33.144 23.9211 33.1403 23.9246 33.1356C23.9282 33.1309 23.9307 33.1255 23.9318 33.1198C23.933 33.114 23.9328 33.108 23.9313 33.1024C23.9298 33.0967 23.927 33.0914 23.9231 33.087C23.2464 32.2841 23.07 31.2853 23.1978 30.2634C23.41 28.5725 24.9126 27.3589 26.5941 27.4441C28.0566 27.5174 29.3572 28.6117 29.6129 30.0819C29.8012 31.1634 29.6291 32.2262 28.9242 33.0844C28.9032 33.1106 28.9075 33.131 28.937 33.1458C29.9955 33.677 30.8137 34.4489 31.3916 35.4614C31.4143 35.5023 31.4404 35.5043 31.47 35.4674C34.4461 31.7191 32.5294 26.2569 27.922 25.1199C24.2879 24.2242 20.5643 26.729 20.024 30.4279C19.7552 32.2688 20.1981 33.9404 21.3526 35.4427C21.3595 35.4512 21.3651 35.4606 21.3697 35.4708ZM27.0399 29.2739C26.6808 29.1097 26.3166 29.0915 25.9473 29.2194C25.2762 29.4518 24.916 29.9447 24.8666 30.6981C24.8069 31.6015 25.2382 32.3634 26.1757 32.5364C27.0066 32.689 27.8291 32.0873 27.9501 31.2452C28.072 30.4015 27.8436 29.6412 27.0399 29.2739ZM22.7623 36.7586C24.9731 38.2765 27.8691 38.2697 30.0833 36.7543C30.11 36.7361 30.1166 36.712 30.1029 36.6819C28.6174 33.4492 24.2393 33.4824 22.7401 36.6742C22.7332 36.6886 22.7317 36.705 22.7357 36.7205C22.7398 36.7359 22.7492 36.7494 22.7623 36.7586Z" fill="#191919"/>
<path d="M52.6711 34.9918C52.6711 35.2201 52.5804 35.4391 52.419 35.6005C52.2576 35.7619 52.0386 35.8526 51.8103 35.8526H39.5546C39.4416 35.8526 39.3297 35.8303 39.2252 35.7871C39.1208 35.7438 39.0259 35.6804 38.946 35.6005C38.866 35.5206 38.8026 35.4257 38.7594 35.3212C38.7161 35.2168 38.6938 35.1049 38.6938 34.9918V28.1907C38.6938 28.0776 38.7161 27.9657 38.7594 27.8613C38.8026 27.7568 38.866 27.6619 38.946 27.582C39.0259 27.5021 39.1208 27.4387 39.2252 27.3954C39.3297 27.3521 39.4416 27.3299 39.5546 27.3299H51.8103C52.0386 27.3299 52.2576 27.4206 52.419 27.582C52.5804 27.7434 52.6711 27.9624 52.6711 28.1907V34.9918ZM50.9666 29.0839C50.9666 29.0707 50.9614 29.0582 50.9521 29.0489C50.9428 29.0396 50.9302 29.0344 50.9171 29.0344H40.4478C40.4347 29.0344 40.4221 29.0396 40.4129 29.0489C40.4036 29.0582 40.3984 29.0707 40.3984 29.0839V34.0986C40.3984 34.1117 40.4036 34.1243 40.4129 34.1336C40.4221 34.1429 40.4347 34.1481 40.4478 34.1481H50.9171C50.9302 34.1481 50.9428 34.1429 50.9521 34.1336C50.9614 34.1243 50.9666 34.1117 50.9666 34.0986V29.0839Z" fill="#191919"/>
<path d="M51.8257 37.558H39.5393C39.0752 37.558 38.699 37.9342 38.699 38.3983V38.4205C38.699 38.8846 39.0752 39.2608 39.5393 39.2608H51.8257C52.2898 39.2608 52.666 38.8846 52.666 38.4205V38.3983C52.666 37.9342 52.2898 37.558 51.8257 37.558Z" fill="#191919"/>
<path d="M39.5461 42.6674C40.0149 42.6674 40.395 42.2873 40.395 41.8185C40.395 41.3497 40.0149 40.9697 39.5461 40.9697C39.0773 40.9697 38.6973 41.3497 38.6973 41.8185C38.6973 42.2873 39.0773 42.6674 39.5461 42.6674Z" fill="#191919"/>
<path d="M42.9552 42.6674C43.424 42.6674 43.8041 42.2873 43.8041 41.8185C43.8041 41.3497 43.424 40.9697 42.9552 40.9697C42.4864 40.9697 42.1063 41.3497 42.1063 41.8185C42.1063 42.2873 42.4864 42.6674 42.9552 42.6674Z" fill="#191919"/>
<path d="M51.835 40.9679H46.3481C45.8901 40.9679 45.5188 41.3392 45.5188 41.7972V41.8398C45.5188 42.2978 45.8901 42.6691 46.3481 42.6691H51.835C52.293 42.6691 52.6643 42.2978 52.6643 41.8398V41.7972C52.6643 41.3392 52.293 40.9679 51.835 40.9679Z" fill="#191919"/>
<path d="M31.6848 41.3123H21.1575C20.6943 41.3123 20.3188 41.6877 20.3188 42.1509V42.1765C20.3188 42.6396 20.6943 43.0151 21.1575 43.0151H31.6848C32.1479 43.0151 32.5234 42.6396 32.5234 42.1765V42.1509C32.5234 41.6877 32.1479 41.3123 31.6848 41.3123Z" fill="#191919"/>
<path d="M30.3213 44.7146L22.5179 44.7282C22.0566 44.729 21.6834 45.1036 21.6842 45.5649L21.6842 45.5972C21.685 46.0585 22.0596 46.4318 22.5209 46.431L30.3243 46.4174C30.7856 46.4166 31.1589 46.042 31.1581 45.5807L31.158 45.5483C31.1572 45.087 30.7826 44.7137 30.3213 44.7146Z" fill="#191919"/>
</svg>
